<svg width="1000" height="1000" viewBox="0 0 1000 1000" fill="none" xmlns="http://www.w3.org/2000/svg">
<rect width="1000" height="1000" fill="white"/>
<path d="M109.457 554.033L127.524 550.929V419.251L109.457 416.148V402.071H146.256L148.251 416.702C152.241 411.234 157.081 407.059 162.771 404.177C168.535 401.295 175.185 399.854 182.722 399.854C197.575 399.854 209.102 405.766 217.304 417.589C225.58 429.338 229.718 444.892 229.718 464.252V466.58C229.718 483.871 225.58 497.837 217.304 508.478C209.028 519.044 197.612 524.328 183.055 524.328C175.665 524.328 169.163 523.108 163.547 520.67C158.005 518.158 153.276 514.463 149.359 509.586V550.929L167.426 554.033V568.109H109.457V554.033ZM207.772 464.252C207.772 450.582 205.112 439.387 199.792 430.668C194.471 421.949 186.565 417.589 176.072 417.589C169.865 417.589 164.544 418.993 160.111 421.801C155.677 424.609 152.093 428.451 149.359 433.328V491.741C152.093 496.692 155.64 500.534 160 503.268C164.434 505.928 169.865 507.258 176.293 507.258C186.639 507.258 194.471 503.49 199.792 495.953C205.112 488.416 207.772 478.625 207.772 466.58V464.252ZM256.808 508.034L274.874 504.931V366.27L256.808 363.167V349.09H296.71V418.032C300.848 412.269 305.91 407.798 311.895 404.621C317.88 401.443 324.531 399.854 331.846 399.854C344.704 399.854 354.679 403.697 361.773 411.382C368.867 419.067 372.413 430.89 372.413 446.851V504.931L390.48 508.034V522H332.511V508.034L350.578 504.931V446.629C350.578 436.727 348.435 429.412 344.149 424.683C339.937 419.953 333.62 417.589 325.196 417.589C319.21 417.589 313.742 419.03 308.791 421.912C303.914 424.72 299.887 428.562 296.71 433.439V504.931L314.777 508.034V522H256.808V508.034ZM417.68 416.148V402.071H455.255L457.361 419.473C460.76 413.34 464.935 408.537 469.886 405.064C474.911 401.591 480.638 399.854 487.066 399.854C488.766 399.854 490.502 400.002 492.276 400.298C494.123 400.52 495.527 400.778 496.488 401.074L493.606 421.357L481.192 420.692C475.428 420.692 470.588 422.059 466.672 424.793C462.755 427.454 459.726 431.222 457.583 436.099V504.931L475.65 508.034V522H417.68V508.034L435.747 504.931V419.251L417.68 416.148ZM601.276 522C600.611 518.749 600.093 515.83 599.724 513.244C599.354 510.657 599.096 508.071 598.948 505.485C594.736 510.879 589.453 515.387 583.098 519.007C576.817 522.554 570.093 524.328 562.925 524.328C550.437 524.328 540.942 521.298 534.439 515.239C527.937 509.106 524.685 500.497 524.685 489.413C524.685 478.034 529.267 469.277 538.429 463.144C547.666 456.937 560.302 453.833 576.337 453.833H598.837V439.868C598.837 432.848 596.62 427.306 592.187 423.242C587.753 419.104 581.583 417.035 573.676 417.035C568.208 417.035 563.368 417.737 559.156 419.141C555.018 420.545 551.656 422.466 549.07 424.904L546.742 437.54H529.895V414.264C535.363 409.904 541.976 406.431 549.735 403.845C557.494 401.185 565.918 399.854 575.007 399.854C588.603 399.854 599.613 403.327 608.037 410.273C616.461 417.219 620.673 427.158 620.673 440.089V497.837C620.673 499.389 620.673 500.903 620.673 502.381C620.746 503.859 620.857 505.337 621.005 506.815L629.872 508.034V522H601.276ZM566.139 506.039C573.381 506.039 579.994 504.303 585.98 500.83C591.965 497.357 596.251 493.182 598.837 488.305V468.575H575.561C566.62 468.575 559.526 470.644 554.279 474.782C549.107 478.92 546.521 483.945 546.521 489.856C546.521 495.103 548.146 499.13 551.398 501.938C554.649 504.672 559.563 506.039 566.139 506.039ZM751.175 439.757H734.771L731.224 425.348C728.564 422.835 725.202 420.84 721.138 419.362C717.148 417.811 712.603 417.035 707.505 417.035C699.746 417.035 693.982 418.734 690.214 422.133C686.445 425.532 684.561 429.633 684.561 434.437C684.561 439.166 686.223 442.897 689.548 445.631C692.874 448.365 699.635 450.804 709.832 452.947C724.98 456.198 736.249 460.632 743.638 466.248C751.028 471.79 754.722 479.253 754.722 488.637C754.722 499.278 750.4 507.886 741.754 514.463C733.182 521.039 721.951 524.328 708.059 524.328C698.97 524.328 690.805 523.293 683.563 521.224C676.322 519.081 669.856 516.015 664.166 512.024L664.055 484.647H680.46L684.561 500.719C687.073 503.009 690.472 504.672 694.758 505.707C699.118 506.741 703.551 507.258 708.059 507.258C715.818 507.258 721.877 505.707 726.236 502.603C730.67 499.426 732.887 495.288 732.887 490.189C732.887 485.386 731.04 481.433 727.345 478.329C723.724 475.226 716.815 472.528 706.618 470.238C692.061 467.06 681.088 462.738 673.698 457.27C666.309 451.801 662.614 444.412 662.614 435.102C662.614 425.348 666.752 417.035 675.028 410.163C683.378 403.291 694.204 399.854 707.505 399.854C716.593 399.854 724.759 401.037 732 403.401C739.242 405.766 745.264 409.054 750.067 413.266L751.175 439.757ZM841.222 524.328C824.522 524.328 811.221 518.786 801.319 507.702C791.492 496.544 786.578 482.098 786.578 464.363V459.486C786.578 442.417 791.639 428.229 801.763 416.924C811.96 405.544 824.005 399.854 837.896 399.854C854.005 399.854 866.198 404.731 874.474 414.485C882.824 424.239 886.999 437.244 886.999 453.501V467.134H809.189L808.856 467.688C809.078 479.216 811.997 488.711 817.613 496.174C823.229 503.564 831.098 507.258 841.222 507.258C848.611 507.258 855.077 506.224 860.619 504.155C866.235 502.012 871.075 499.093 875.139 495.398L883.673 509.586C879.388 513.724 873.698 517.234 866.604 520.116C859.584 522.924 851.123 524.328 841.222 524.328ZM837.896 417.035C830.581 417.035 824.337 420.138 819.165 426.345C813.992 432.478 810.815 440.2 809.632 449.511L809.854 450.065H865.163V447.183C865.163 438.611 862.872 431.444 858.291 425.68C853.71 419.917 846.911 417.035 837.896 417.035Z" fill="#333333"/>
<rect x="255" y="604" width="455" height="72" rx="36" fill="#BB6BD9" fill-opacity="0.75"/>
<rect x="276" y="622" width="123" height="36" rx="18" fill="#E0E0E0"/>
<rect x="420" y="622" width="76" height="36" rx="18" fill="#E0E0E0"/>
<rect x="102" y="622" width="132" height="36" rx="18" fill="#E0E0E0"/>
<rect x="731" y="622" width="168" height="36" rx="18" fill="#E0E0E0"/>
<rect x="517" y="622" width="172" height="36" rx="18" fill="#E0E0E0"/>
<rect x="276" y="271" width="123" height="36" rx="18" fill="#E0E0E0"/>
<rect x="420" y="271" width="76" height="36" rx="18" fill="#E0E0E0"/>
<rect x="102" y="271" width="153" height="36" rx="18" fill="#E0E0E0"/>
<rect x="710" y="271" width="189" height="36" rx="18" fill="#E0E0E0"/>
<rect x="517" y="271" width="172" height="36" rx="18" fill="#E0E0E0"/>
<rect x="276" y="766" width="123" height="36" rx="18" fill="#E0E0E0"/>
<rect x="420" y="766" width="76" height="36" rx="18" fill="#E0E0E0"/>
<rect x="102" y="766" width="153" height="36" rx="18" fill="#E0E0E0"/>
<rect x="630" y="766" width="269" height="36" rx="18" fill="#E0E0E0"/>
<rect x="517" y="766" width="92" height="36" rx="18" fill="#E0E0E0"/>
<rect x="374" y="694" width="76" height="36" rx="18" fill="#E0E0E0"/>
<rect x="706" y="343" width="193" height="36" rx="18" fill="#E0E0E0"/>
<rect x="609" y="343" width="76" height="36" rx="18" fill="#E0E0E0"/>
<rect x="102" y="694" width="251" height="36" rx="18" fill="#E0E0E0"/>
<rect x="337" y="343" width="251" height="36" rx="18" fill="#E0E0E0"/>
<rect x="570" y="694" width="168" height="36" rx="18" fill="#E0E0E0"/>
<rect x="102" y="343" width="125" height="36" rx="18" fill="#E0E0E0"/>
<rect x="471" y="694" width="78" height="36" rx="18" fill="#E0E0E0"/>
<rect x="759" y="694" width="140" height="36" rx="18" fill="#E0E0E0"/>
<rect x="374" y="209" width="76" height="36" rx="18" fill="#E0E0E0"/>
<rect x="102" y="209" width="251" height="36" rx="18" fill="#E0E0E0"/>
<rect x="570" y="209" width="168" height="36" rx="18" fill="#E0E0E0"/>
<rect x="471" y="209" width="78" height="36" rx="18" fill="#E0E0E0"/>
<rect x="759" y="209" width="140" height="36" rx="18" fill="#E0E0E0"/>
<rect x="199" y="550" width="93" height="36" rx="18" fill="#E0E0E0"/>
<rect x="313" y="550" width="76" height="36" rx="18" fill="#E0E0E0"/>
<rect x="710" y="550" width="189" height="36" rx="18" fill="#E0E0E0"/>
<rect x="410" y="550" width="279" height="36" rx="18" fill="#E0E0E0"/>
</svg>
