<svg width="898" height="898" viewBox="0 0 898 898" fill="none" xmlns="http://www.w3.org/2000/svg">
<rect width="898" height="898" fill="white"/>
<path d="M57.457 502.033L75.5239 498.929V367.251L57.457 364.148V350.071H94.2559L96.251 364.702C100.241 359.234 105.081 355.059 110.771 352.177C116.535 349.295 123.185 347.854 130.722 347.854C145.575 347.854 157.102 353.766 165.304 365.589C173.58 377.338 177.718 392.892 177.718 412.252V414.58C177.718 431.871 173.58 445.837 165.304 456.478C157.028 467.044 145.612 472.328 131.055 472.328C123.665 472.328 117.163 471.108 111.547 468.67C106.005 466.158 101.276 462.463 97.3594 457.586V498.929L115.426 502.033V516.109H57.457V502.033ZM155.772 412.252C155.772 398.582 153.112 387.387 147.792 378.668C142.471 369.949 134.565 365.589 124.072 365.589C117.865 365.589 112.544 366.993 108.111 369.801C103.677 372.609 100.093 376.451 97.3594 381.328V439.741C100.093 444.692 103.64 448.534 108 451.268C112.434 453.928 117.865 455.258 124.293 455.258C134.639 455.258 142.471 451.49 147.792 443.953C153.112 436.416 155.772 426.625 155.772 414.58V412.252ZM204.808 456.034L222.874 452.931V314.27L204.808 311.167V297.09H244.71V366.032C248.848 360.269 253.91 355.798 259.895 352.621C265.88 349.443 272.531 347.854 279.846 347.854C292.704 347.854 302.679 351.697 309.773 359.382C316.867 367.067 320.413 378.89 320.413 394.851V452.931L338.48 456.034V470H280.511V456.034L298.578 452.931V394.629C298.578 384.727 296.435 377.412 292.149 372.683C287.937 367.953 281.62 365.589 273.196 365.589C267.21 365.589 261.742 367.03 256.791 369.912C251.914 372.72 247.887 376.562 244.71 381.439V452.931L262.777 456.034V470H204.808V456.034ZM365.68 364.148V350.071H403.255L405.361 367.473C408.76 361.34 412.935 356.537 417.886 353.064C422.911 349.591 428.638 347.854 435.066 347.854C436.766 347.854 438.502 348.002 440.276 348.298C442.123 348.52 443.527 348.778 444.488 349.074L441.606 369.357L429.192 368.692C423.428 368.692 418.588 370.059 414.672 372.793C410.755 375.454 407.726 379.222 405.583 384.099V452.931L423.65 456.034V470H365.68V456.034L383.747 452.931V367.251L365.68 364.148ZM549.276 470C548.611 466.749 548.093 463.83 547.724 461.244C547.354 458.657 547.096 456.071 546.948 453.485C542.736 458.879 537.453 463.387 531.098 467.007C524.817 470.554 518.093 472.328 510.925 472.328C498.437 472.328 488.942 469.298 482.439 463.239C475.937 457.106 472.685 448.497 472.685 437.413C472.685 426.034 477.267 417.277 486.429 411.144C495.666 404.937 508.302 401.833 524.337 401.833H546.837V387.868C546.837 380.848 544.62 375.306 540.187 371.242C535.753 367.104 529.583 365.035 521.676 365.035C516.208 365.035 511.368 365.737 507.156 367.141C503.018 368.545 499.656 370.466 497.07 372.904L494.742 385.54H477.895V362.264C483.363 357.904 489.976 354.431 497.735 351.845C505.494 349.185 513.918 347.854 523.007 347.854C536.603 347.854 547.613 351.327 556.037 358.273C564.461 365.219 568.673 375.158 568.673 388.089V445.837C568.673 447.389 568.673 448.903 568.673 450.381C568.746 451.859 568.857 453.337 569.005 454.815L577.872 456.034V470H549.276ZM514.139 454.039C521.381 454.039 527.994 452.303 533.98 448.83C539.965 445.357 544.251 441.182 546.837 436.305V416.575H523.561C514.62 416.575 507.526 418.644 502.279 422.782C497.107 426.92 494.521 431.945 494.521 437.856C494.521 443.103 496.146 447.13 499.398 449.938C502.649 452.672 507.563 454.039 514.139 454.039ZM699.175 387.757H682.771L679.224 373.348C676.564 370.835 673.202 368.84 669.138 367.362C665.148 365.811 660.603 365.035 655.505 365.035C647.746 365.035 641.982 366.734 638.214 370.133C634.445 373.532 632.561 377.633 632.561 382.437C632.561 387.166 634.223 390.897 637.548 393.631C640.874 396.365 647.635 398.804 657.832 400.947C672.98 404.198 684.249 408.632 691.638 414.248C699.028 419.79 702.722 427.253 702.722 436.637C702.722 447.278 698.4 455.886 689.754 462.463C681.182 469.039 669.951 472.328 656.059 472.328C646.97 472.328 638.805 471.293 631.563 469.224C624.322 467.081 617.856 464.015 612.166 460.024L612.055 432.647H628.46L632.561 448.719C635.073 451.009 638.472 452.672 642.758 453.707C647.118 454.741 651.551 455.258 656.059 455.258C663.818 455.258 669.877 453.707 674.236 450.603C678.67 447.426 680.887 443.288 680.887 438.189C680.887 433.386 679.04 429.433 675.345 426.329C671.724 423.226 664.815 420.528 654.618 418.238C640.061 415.06 629.088 410.738 621.698 405.27C614.309 399.801 610.614 392.412 610.614 383.102C610.614 373.348 614.752 365.035 623.028 358.163C631.378 351.291 642.204 347.854 655.505 347.854C664.593 347.854 672.759 349.037 680 351.401C687.242 353.766 693.264 357.054 698.067 361.266L699.175 387.757ZM789.222 472.328C772.522 472.328 759.221 466.786 749.319 455.702C739.492 444.544 734.578 430.098 734.578 412.363V407.486C734.578 390.417 739.639 376.229 749.763 364.924C759.96 353.544 772.005 347.854 785.896 347.854C802.005 347.854 814.198 352.731 822.474 362.485C830.824 372.239 834.999 385.244 834.999 401.501V415.134H757.189L756.856 415.688C757.078 427.216 759.997 436.711 765.613 444.174C771.229 451.564 779.098 455.258 789.222 455.258C796.611 455.258 803.077 454.224 808.619 452.155C814.235 450.012 819.075 447.093 823.139 443.398L831.673 457.586C827.388 461.724 821.698 465.234 814.604 468.116C807.584 470.924 799.123 472.328 789.222 472.328ZM785.896 365.035C778.581 365.035 772.337 368.138 767.165 374.345C761.992 380.478 758.815 388.2 757.632 397.511L757.854 398.065H813.163V395.183C813.163 386.611 810.872 379.444 806.291 373.68C801.71 367.917 794.911 365.035 785.896 365.035Z" fill="#333333"/>
<rect x="203" y="563" width="455" height="72" rx="36" fill="#BB6BD9" fill-opacity="0.75"/>
<rect x="347" y="186" width="311" height="72" rx="36" fill="#BB6BD9" fill-opacity="0.75"/>
<rect x="224" y="581" width="123" height="36" rx="18" fill="#E0E0E0"/>
<rect x="368" y="581" width="76" height="36" rx="18" fill="#E0E0E0"/>
<rect x="50" y="581" width="132" height="36" rx="18" fill="#E0E0E0"/>
<rect x="679" y="581" width="168" height="36" rx="18" fill="#E0E0E0"/>
<rect x="465" y="581" width="172" height="36" rx="18" fill="#E0E0E0"/>
<rect x="224" y="204" width="107" height="36" rx="18" fill="#E0E0E0"/>
<rect x="368" y="204" width="76" height="36" rx="18" fill="#E0E0E0"/>
<rect x="50" y="204" width="153" height="36" rx="18" fill="#E0E0E0"/>
<rect x="679" y="204" width="168" height="36" rx="18" fill="#E0E0E0"/>
<rect x="465" y="204" width="172" height="36" rx="18" fill="#E0E0E0"/>
<rect x="224" y="725" width="123" height="36" rx="18" fill="#E0E0E0"/>
<rect x="368" y="725" width="76" height="36" rx="18" fill="#E0E0E0"/>
<rect x="50" y="725" width="153" height="36" rx="18" fill="#E0E0E0"/>
<rect x="578" y="725" width="269" height="36" rx="18" fill="#E0E0E0"/>
<rect x="465" y="725" width="92" height="36" rx="18" fill="#E0E0E0"/>
<rect x="322" y="653" width="76" height="36" rx="18" fill="#E0E0E0"/>
<rect x="654" y="276" width="193" height="36" rx="18" fill="#E0E0E0"/>
<rect x="557" y="276" width="76" height="36" rx="18" fill="#E0E0E0"/>
<rect x="50" y="653" width="251" height="36" rx="18" fill="#E0E0E0"/>
<rect x="285" y="276" width="251" height="36" rx="18" fill="#E0E0E0"/>
<rect x="518" y="653" width="168" height="36" rx="18" fill="#E0E0E0"/>
<rect x="50" y="276" width="125" height="36" rx="18" fill="#E0E0E0"/>
<rect x="419" y="653" width="78" height="36" rx="18" fill="#E0E0E0"/>
<rect x="707" y="653" width="140" height="36" rx="18" fill="#E0E0E0"/>
<rect x="322" y="132" width="76" height="36" rx="18" fill="#E0E0E0"/>
<rect x="50" y="132" width="251" height="36" rx="18" fill="#E0E0E0"/>
<rect x="518" y="132" width="168" height="36" rx="18" fill="#E0E0E0"/>
<rect x="419" y="132" width="78" height="36" rx="18" fill="#E0E0E0"/>
<rect x="707" y="132" width="140" height="36" rx="18" fill="#E0E0E0"/>
<rect x="147" y="509" width="93" height="36" rx="18" fill="#E0E0E0"/>
<rect x="261" y="509" width="76" height="36" rx="18" fill="#E0E0E0"/>
<rect x="658" y="509" width="189" height="36" rx="18" fill="#E0E0E0"/>
<rect x="358" y="509" width="279" height="36" rx="18" fill="#E0E0E0"/>
</svg>
