<svg width="898" height="898" viewBox="0 0 898 898" fill="none" xmlns="http://www.w3.org/2000/svg">
<rect width="898" height="898" fill="white"/>
<path d="M57.457 538.033L75.5239 534.929V403.251L57.457 400.148V386.071H94.2559L96.251 400.702C100.241 395.234 105.081 391.059 110.771 388.177C116.535 385.295 123.185 383.854 130.722 383.854C145.575 383.854 157.102 389.766 165.304 401.589C173.58 413.338 177.718 428.892 177.718 448.252V450.58C177.718 467.871 173.58 481.837 165.304 492.478C157.028 503.044 145.612 508.328 131.055 508.328C123.665 508.328 117.163 507.108 111.547 504.67C106.005 502.158 101.276 498.463 97.3594 493.586V534.929L115.426 538.033V552.109H57.457V538.033ZM155.772 448.252C155.772 434.582 153.112 423.387 147.792 414.668C142.471 405.949 134.565 401.589 124.072 401.589C117.865 401.589 112.544 402.993 108.111 405.801C103.677 408.609 100.093 412.451 97.3594 417.328V475.741C100.093 480.692 103.64 484.534 108 487.268C112.434 489.928 117.865 491.258 124.293 491.258C134.639 491.258 142.471 487.49 147.792 479.953C153.112 472.416 155.772 462.625 155.772 450.58V448.252ZM204.808 492.034L222.874 488.931V350.27L204.808 347.167V333.09H244.71V402.032C248.848 396.269 253.91 391.798 259.895 388.621C265.88 385.443 272.531 383.854 279.846 383.854C292.704 383.854 302.679 387.697 309.773 395.382C316.867 403.067 320.413 414.89 320.413 430.851V488.931L338.48 492.034V506H280.511V492.034L298.578 488.931V430.629C298.578 420.727 296.435 413.412 292.149 408.683C287.937 403.953 281.62 401.589 273.196 401.589C267.21 401.589 261.742 403.03 256.791 405.912C251.914 408.72 247.887 412.562 244.71 417.439V488.931L262.777 492.034V506H204.808V492.034ZM365.68 400.148V386.071H403.255L405.361 403.473C408.76 397.34 412.935 392.537 417.886 389.064C422.911 385.591 428.638 383.854 435.066 383.854C436.766 383.854 438.502 384.002 440.276 384.298C442.123 384.52 443.527 384.778 444.488 385.074L441.606 405.357L429.192 404.692C423.428 404.692 418.588 406.059 414.672 408.793C410.755 411.454 407.726 415.222 405.583 420.099V488.931L423.65 492.034V506H365.68V492.034L383.747 488.931V403.251L365.68 400.148ZM549.276 506C548.611 502.749 548.093 499.83 547.724 497.244C547.354 494.657 547.096 492.071 546.948 489.485C542.736 494.879 537.453 499.387 531.098 503.007C524.817 506.554 518.093 508.328 510.925 508.328C498.437 508.328 488.942 505.298 482.439 499.239C475.937 493.106 472.685 484.497 472.685 473.413C472.685 462.034 477.267 453.277 486.429 447.144C495.666 440.937 508.302 437.833 524.337 437.833H546.837V423.868C546.837 416.848 544.62 411.306 540.187 407.242C535.753 403.104 529.583 401.035 521.676 401.035C516.208 401.035 511.368 401.737 507.156 403.141C503.018 404.545 499.656 406.466 497.07 408.904L494.742 421.54H477.895V398.264C483.363 393.904 489.976 390.431 497.735 387.845C505.494 385.185 513.918 383.854 523.007 383.854C536.603 383.854 547.613 387.327 556.037 394.273C564.461 401.219 568.673 411.158 568.673 424.089V481.837C568.673 483.389 568.673 484.903 568.673 486.381C568.746 487.859 568.857 489.337 569.005 490.815L577.872 492.034V506H549.276ZM514.139 490.039C521.381 490.039 527.994 488.303 533.98 484.83C539.965 481.357 544.251 477.182 546.837 472.305V452.575H523.561C514.62 452.575 507.526 454.644 502.279 458.782C497.107 462.92 494.521 467.945 494.521 473.856C494.521 479.103 496.146 483.13 499.398 485.938C502.649 488.672 507.563 490.039 514.139 490.039ZM699.175 423.757H682.771L679.224 409.348C676.564 406.835 673.202 404.84 669.138 403.362C665.148 401.811 660.603 401.035 655.505 401.035C647.746 401.035 641.982 402.734 638.214 406.133C634.445 409.532 632.561 413.633 632.561 418.437C632.561 423.166 634.223 426.897 637.548 429.631C640.874 432.365 647.635 434.804 657.832 436.947C672.98 440.198 684.249 444.632 691.638 450.248C699.028 455.79 702.722 463.253 702.722 472.637C702.722 483.278 698.4 491.886 689.754 498.463C681.182 505.039 669.951 508.328 656.059 508.328C646.97 508.328 638.805 507.293 631.563 505.224C624.322 503.081 617.856 500.015 612.166 496.024L612.055 468.647H628.46L632.561 484.719C635.073 487.009 638.472 488.672 642.758 489.707C647.118 490.741 651.551 491.258 656.059 491.258C663.818 491.258 669.877 489.707 674.236 486.603C678.67 483.426 680.887 479.288 680.887 474.189C680.887 469.386 679.04 465.433 675.345 462.329C671.724 459.226 664.815 456.528 654.618 454.238C640.061 451.06 629.088 446.738 621.698 441.27C614.309 435.801 610.614 428.412 610.614 419.102C610.614 409.348 614.752 401.035 623.028 394.163C631.378 387.291 642.204 383.854 655.505 383.854C664.593 383.854 672.759 385.037 680 387.401C687.242 389.766 693.264 393.054 698.067 397.266L699.175 423.757ZM789.222 508.328C772.522 508.328 759.221 502.786 749.319 491.702C739.492 480.544 734.578 466.098 734.578 448.363V443.486C734.578 426.417 739.639 412.229 749.763 400.924C759.96 389.544 772.005 383.854 785.896 383.854C802.005 383.854 814.198 388.731 822.474 398.485C830.824 408.239 834.999 421.244 834.999 437.501V451.134H757.189L756.856 451.688C757.078 463.216 759.997 472.711 765.613 480.174C771.229 487.564 779.098 491.258 789.222 491.258C796.611 491.258 803.077 490.224 808.619 488.155C814.235 486.012 819.075 483.093 823.139 479.398L831.673 493.586C827.388 497.724 821.698 501.234 814.604 504.116C807.584 506.924 799.123 508.328 789.222 508.328ZM785.896 401.035C778.581 401.035 772.337 404.138 767.165 410.345C761.992 416.478 758.815 424.2 757.632 433.511L757.854 434.065H813.163V431.183C813.163 422.611 810.872 415.444 806.291 409.68C801.71 403.917 794.911 401.035 785.896 401.035Z" fill="#333333"/>
<rect x="203" y="599" width="455" height="72" rx="36" fill="#BB6BD9" fill-opacity="0.75"/>
<rect x="347" y="222" width="311" height="72" rx="36" fill="#BB6BD9" fill-opacity="0.75"/>
<rect x="224" y="617" width="123" height="36" rx="18" fill="#E0E0E0"/>
<rect x="368" y="617" width="76" height="36" rx="18" fill="#E0E0E0"/>
<rect x="50" y="617" width="132" height="36" rx="18" fill="#E0E0E0"/>
<rect x="679" y="617" width="168" height="36" rx="18" fill="#E0E0E0"/>
<rect x="465" y="617" width="172" height="36" rx="18" fill="#E0E0E0"/>
<rect x="224" y="240" width="107" height="36" rx="18" fill="#E0E0E0"/>
<rect x="368" y="240" width="76" height="36" rx="18" fill="#E0E0E0"/>
<rect x="50" y="240" width="153" height="36" rx="18" fill="#E0E0E0"/>
<rect x="679" y="240" width="168" height="36" rx="18" fill="#E0E0E0"/>
<rect x="465" y="240" width="172" height="36" rx="18" fill="#E0E0E0"/>
<rect x="224" y="761" width="123" height="36" rx="18" fill="#E0E0E0"/>
<rect x="368" y="761" width="76" height="36" rx="18" fill="#E0E0E0"/>
<rect x="50" y="761" width="153" height="36" rx="18" fill="#E0E0E0"/>
<rect x="578" y="761" width="269" height="36" rx="18" fill="#E0E0E0"/>
<rect x="465" y="761" width="92" height="36" rx="18" fill="#E0E0E0"/>
<rect x="224" y="100" width="123" height="36" rx="18" fill="#E0E0E0"/>
<rect x="368" y="100" width="76" height="36" rx="18" fill="#E0E0E0"/>
<rect x="50" y="100" width="153" height="36" rx="18" fill="#E0E0E0"/>
<rect x="578" y="100" width="269" height="36" rx="18" fill="#E0E0E0"/>
<rect x="465" y="100" width="92" height="36" rx="18" fill="#E0E0E0"/>
<rect x="322" y="689" width="76" height="36" rx="18" fill="#E0E0E0"/>
<rect x="654" y="312" width="193" height="36" rx="18" fill="#E0E0E0"/>
<rect x="557" y="312" width="76" height="36" rx="18" fill="#E0E0E0"/>
<rect x="50" y="689" width="251" height="36" rx="18" fill="#E0E0E0"/>
<rect x="285" y="312" width="251" height="36" rx="18" fill="#E0E0E0"/>
<rect x="518" y="689" width="168" height="36" rx="18" fill="#E0E0E0"/>
<rect x="50" y="312" width="125" height="36" rx="18" fill="#E0E0E0"/>
<rect x="419" y="689" width="78" height="36" rx="18" fill="#E0E0E0"/>
<rect x="707" y="689" width="140" height="36" rx="18" fill="#E0E0E0"/>
<rect x="322" y="168" width="76" height="36" rx="18" fill="#E0E0E0"/>
<rect x="50" y="168" width="251" height="36" rx="18" fill="#E0E0E0"/>
<rect x="518" y="168" width="168" height="36" rx="18" fill="#E0E0E0"/>
<rect x="419" y="168" width="78" height="36" rx="18" fill="#E0E0E0"/>
<rect x="707" y="168" width="140" height="36" rx="18" fill="#E0E0E0"/>
<rect x="147" y="545" width="93" height="36" rx="18" fill="#E0E0E0"/>
<rect x="261" y="545" width="76" height="36" rx="18" fill="#E0E0E0"/>
<rect x="658" y="545" width="189" height="36" rx="18" fill="#E0E0E0"/>
<rect x="358" y="545" width="279" height="36" rx="18" fill="#E0E0E0"/>
</svg>
